<?xml version="1.0" encoding="UTF-8" standalone="no"?>
<svg
   xmlns:dc="http://purl.org/dc/elements/1.1/"
   xmlns:cc="http://creativecommons.org/ns#"
   xmlns:rdf="http://www.w3.org/1999/02/22-rdf-syntax-ns#"
   xmlns:svg="http://www.w3.org/2000/svg"
   xmlns="http://www.w3.org/2000/svg"
   xmlns:sodipodi="http://sodipodi.sourceforge.net/DTD/sodipodi-0.dtd"
   xmlns:inkscape="http://www.inkscape.org/namespaces/inkscape"
   version="1.1"
   id="svg2"
   width="75"
   height="61"
   viewBox="0 0 75 61"
   sodipodi:docname="cat withe.svg"
   inkscape:version="1.0.2 (e86c870879, 2021-01-15)">
  <metadata
     id="metadata8">
    <rdf:RDF>
      <cc:Work
         rdf:about="">
        <dc:format>image/svg+xml</dc:format>
        <dc:type
           rdf:resource="http://purl.org/dc/dcmitype/StillImage" />
        <dc:title></dc:title>
      </cc:Work>
    </rdf:RDF>
  </metadata>
  <defs
     id="defs6" />
  <sodipodi:namedview
     pagecolor="#ffffff"
     bordercolor="#666666"
     borderopacity="1"
     objecttolerance="10"
     gridtolerance="10"
     guidetolerance="10"
     inkscape:pageopacity="0"
     inkscape:pageshadow="2"
     inkscape:window-width="1366"
     inkscape:window-height="693"
     id="namedview4"
     showgrid="false"
     inkscape:zoom="4.7022222"
     inkscape:cx="67.772421"
     inkscape:cy="53.606097"
     inkscape:window-x="0"
     inkscape:window-y="0"
     inkscape:window-maximized="1"
     inkscape:current-layer="g10" />
  <g
     inkscape:groupmode="layer"
     inkscape:label="Image"
     id="g10">
    <g
       id="g924"
       transform="matrix(0.31171825,0,0,0.31171825,-22.938679,-103.92753)"
       style="fill:#ffffff">
      <path
         style="fill:#ffffff"
         d="m 78.4054,437.44175 c -5.17495,-5.17494 -1.60096,-14.54545 5.54774,-14.54545 7.17949,0 10.96048,10.52433 5.36285,14.92742 -3.56633,2.80527 -7.87417,2.65446 -10.91059,-0.38197 z"
         id="path919" />
      <path
         style="fill:#ffffff"
         d="m 179.17981,468.22701 c -1.78348,-0.71758 -4.22896,-5.75343 -4.22896,-8.70847 0,-1.50774 1.06997,-3.31872 2.73422,-4.62782 5.18795,-4.08084 12.26578,-0.30482 12.26578,6.54378 0,5.17163 -5.7645,8.80687 -10.77104,6.79251 z"
         id="path917" />
      <path
         style="fill:#ffffff"
         d="m 305.70085,528.59688 c -2.36333,-0.93387 -2.75299,-1.6571 -2.7713,-5.14362 -0.0204,-3.87809 -0.87264,-6.6239 -9.46851,-30.50464 -3.47833,-9.66337 -3.70978,-10.97711 -3.08316,-17.5 0.37261,-3.87878 0.89102,-21.49971 1.15202,-39.15764 0.41809,-28.28598 0.28843,-32.25977 -1.08988,-33.40366 -1.31457,-1.091 -3.75435,-0.47246 -15.27679,3.873 -7.54181,2.84424 -14.03433,5.16339 -14.42783,5.15367 -0.39349,-0.01 -5.21182,-2.96375 -10.70739,-6.5645 -17.6119,-11.53947 -44.75287,-23.2951 -69.07716,-29.91953 -4.675,-1.27318 -13.86073,-3.95338 -20.41274,-5.95599 -13.08804,-4.00035 -14.53271,-5.06951 -27.50734,-20.35757 l -5.32961,-6.2799 -9.66236,9.2799 c -8.42527,8.09178 -10.80988,9.77384 -18.62515,13.13784 -9.58639,4.12635 -14.44701,6.50754 -21.2128,10.39202 l -4.25,2.44008 v -4.45836 -4.45836 l 14.00456,-6.38666 c 13.3098,-6.06982 14.56245,-6.89999 25.25,-16.73407 6.18499,-5.69107 11.92044,-10.7004 12.74544,-11.13183 2.69225,-1.40792 5.57428,0.66097 14.10226,10.12341 12.46674,13.83277 16.7886,17.75235 20.78888,18.85378 1.98487,0.54652 8.55886,2.16154 14.60886,3.58895 6.05,1.42741 15.95,4.52031 22,6.87312 13.12275,5.10336 40.45991,18.65128 52.78106,26.15757 4.85921,2.96032 9.1796,5.38241 9.60086,5.38241 0.42126,0 4.33266,-1.50895 8.692,-3.35322 13.49227,-5.70807 24.02047,-9.64678 25.78593,-9.64678 0.92931,0 2.06381,1.0125 2.5211,2.25 1.58151,4.27974 2.21263,40.79377 1.03462,59.85902 l -1.15312,18.66237 6.01726,15.96879 c 3.3095,8.78284 6.76417,19.29678 7.67706,23.36431 0.91289,4.06753 2.08357,9.02272 2.60152,11.01153 0.51794,1.98881 0.94171,4.12631 0.94171,4.75 0,1.39348 -4.53501,1.30253 -8.25,-0.16544 z"
         id="path859" />
    </g>
  </g>
</svg>
