<?xml version="1.0" encoding="UTF-8" standalone="no"?>
<svg
   xmlns:dc="http://purl.org/dc/elements/1.1/"
   xmlns:cc="http://creativecommons.org/ns#"
   xmlns:rdf="http://www.w3.org/1999/02/22-rdf-syntax-ns#"
   xmlns:svg="http://www.w3.org/2000/svg"
   xmlns="http://www.w3.org/2000/svg"
   xmlns:sodipodi="http://sodipodi.sourceforge.net/DTD/sodipodi-0.dtd"
   xmlns:inkscape="http://www.inkscape.org/namespaces/inkscape"
   version="1.1"
   id="svg2"
   width="94.503685"
   height="82.966095"
   viewBox="0 0 94.503685 82.966095"
   sodipodi:docname="paw-right-down.svg"
   inkscape:version="1.0.2 (e86c870879, 2021-01-15)">
  <metadata
     id="metadata8">
    <rdf:RDF>
      <cc:Work
         rdf:about="">
        <dc:format>image/svg+xml</dc:format>
        <dc:type
           rdf:resource="http://purl.org/dc/dcmitype/StillImage" />
        <dc:title />
      </cc:Work>
    </rdf:RDF>
  </metadata>
  <defs
     id="defs6" />
  <sodipodi:namedview
     pagecolor="#ffffff"
     bordercolor="#666666"
     borderopacity="1"
     objecttolerance="10"
     gridtolerance="10"
     guidetolerance="10"
     inkscape:pageopacity="0"
     inkscape:pageshadow="2"
     inkscape:window-width="1366"
     inkscape:window-height="742"
     id="namedview4"
     showgrid="false"
     inkscape:snap-global="false"
     fit-margin-top="0"
     fit-margin-left="0"
     fit-margin-right="0"
     fit-margin-bottom="0"
     inkscape:zoom="2.3511111"
     inkscape:cx="106.49611"
     inkscape:cy="-6.4540096"
     inkscape:window-x="0"
     inkscape:window-y="0"
     inkscape:window-maximized="1"
     inkscape:current-layer="g10"
     inkscape:document-rotation="0" />
  <g
     inkscape:groupmode="layer"
     inkscape:label="Image"
     id="g10"
     transform="translate(29.018831,-197.16551)">
    <path
       style="fill:#000000;stroke:#000000;stroke-width:1px;stroke-linecap:butt;stroke-linejoin:miter;stroke-opacity:1;fill-opacity:1"
       d="m 62.130544,200.30158 -14.372918,58.47831 c -36.580714,12.22407 -52.1467923,7.82027 -58.850492,-3.5959 6.6892552,-19.80979 38.671308,-37.45602 73.22341,-54.88241 z"
       id="path838"
       sodipodi:nodetypes="cccc" />
    <g
       id="g3103"
       transform="matrix(0.8135642,0,0,0.62309132,-638.11176,74.944636)">
      <g
         id="g3076"
         transform="translate(-110.6356,78.744105)">
        <rect
           style="fill:#fe9ba1;fill-opacity:1;stroke-width:16.4976;stroke-linecap:round"
           id="rect3020"
           width="5.3530283"
           height="21.299068"
           x="835.02411"
           y="-352.19235"
           transform="rotate(37.453907)"
           ry="2.6765141" />
        <rect
           style="fill:#fe9ba1;fill-opacity:1;stroke-width:13.4707;stroke-linecap:round"
           id="rect3020-7"
           width="5.3512359"
           height="14.205041"
           x="905.28571"
           y="216.19519"
           transform="matrix(0.99973227,0.02313837,-0.0520416,0.99864492,0,0)"
           ry="1.7850543" />
        <rect
           style="fill:#fe9ba1;fill-opacity:1;stroke-width:13.4707;stroke-linecap:round"
           id="rect3020-7-5"
           width="5.3512359"
           height="14.205041"
           x="-280.86575"
           y="831.97656"
           transform="matrix(-0.10646537,-0.99431641,0.99697955,-0.07766456,0,0)"
           ry="1.7850543" />
      </g>
      <path
         style="fill:#ffffff;fill-opacity:1"
         d="m 791.35708,308.65143 c -11.5087,-2.04947 -15.1037,-4.06211 -20.5932,-11.52912 -2.6994,-3.67176 -3.4068,-5.5802 -3.4068,-9.19098 0,-2.50635 0.3883,-4.79697 0.8628,-5.09026 0.4746,-0.29329 1.4331,-2.56985 2.13,-5.05902 0.6969,-2.48917 1.5461,-4.53092 1.8872,-4.53723 0.341,-0.006 1.4858,-1.81848 2.544,-4.02705 2.5236,-5.26673 12.9604,-17.48685 23.576,-27.60428 15.3118,-14.59321 60.2246,-46.24496 65.75,-46.33649 0.8124,-0.0135 1.25,1.50855 1.25,4.34748 0,4.3135 -0.08,4.41515 -6.4113,8.11765 -3.5262,2.0622 -9.6771,6.20628 -13.6686,9.20907 -3.9916,3.00279 -9.994,7.31375 -13.3388,9.5799 -22.3818,15.1643 -40.914,30.6965 -48.2068,40.40319 -5.0839,6.76662 -10.3745,18.15822 -10.3745,22.33818 0,5.83904 8.1437,11.41866 20.3709,13.95701 9.0822,1.88546 24.5425,-1.18125 37.8752,-7.51292 6.5109,-3.09201 8.3169,-3.52253 13.6809,-3.26127 l 6.1798,0.301 -7.8034,4.1322 c -14.8494,7.86334 -41.0777,13.76202 -52.3034,11.76294 z"
         id="path854-3"
         sodipodi:nodetypes="ssssscsssssscssssscss" />
    </g>
  </g>
</svg>
