<?xml version="1.0" encoding="UTF-8" standalone="no"?>
<svg
   xmlns:dc="http://purl.org/dc/elements/1.1/"
   xmlns:cc="http://creativecommons.org/ns#"
   xmlns:rdf="http://www.w3.org/1999/02/22-rdf-syntax-ns#"
   xmlns:svg="http://www.w3.org/2000/svg"
   xmlns="http://www.w3.org/2000/svg"
   xmlns:sodipodi="http://sodipodi.sourceforge.net/DTD/sodipodi-0.dtd"
   xmlns:inkscape="http://www.inkscape.org/namespaces/inkscape"
   version="1.1"
   id="svg2"
   width="94.503685"
   height="82.966095"
   viewBox="0 0 94.503685 82.966095"
   sodipodi:docname="paw-right-up-black.svg"
   inkscape:version="1.0.2 (e86c870879, 2021-01-15)">
  <metadata
     id="metadata8">
    <rdf:RDF>
      <cc:Work
         rdf:about="">
        <dc:format>image/svg+xml</dc:format>
        <dc:type
           rdf:resource="http://purl.org/dc/dcmitype/StillImage" />
        <dc:title></dc:title>
      </cc:Work>
    </rdf:RDF>
  </metadata>
  <defs
     id="defs6">
    <filter
       inkscape:collect="always"
       style="color-interpolation-filters:sRGB"
       id="filter3016"
       x="-0.018629555"
       width="1.0372591"
       y="-0.016112765"
       height="1.0322255">
      <feGaussianBlur
         inkscape:collect="always"
         stdDeviation="0.23852627"
         id="feGaussianBlur3018" />
    </filter>
  </defs>
  <sodipodi:namedview
     pagecolor="#ffffff"
     bordercolor="#666666"
     borderopacity="1"
     objecttolerance="10"
     gridtolerance="10"
     guidetolerance="10"
     inkscape:pageopacity="0"
     inkscape:pageshadow="2"
     inkscape:window-width="1366"
     inkscape:window-height="696"
     id="namedview4"
     showgrid="false"
     inkscape:snap-global="false"
     fit-margin-top="0"
     fit-margin-left="0"
     fit-margin-right="0"
     fit-margin-bottom="0"
     inkscape:zoom="0.58777778"
     inkscape:cx="474.40207"
     inkscape:cy="238.03575"
     inkscape:window-x="0"
     inkscape:window-y="0"
     inkscape:window-maximized="1"
     inkscape:current-layer="g10" />
  <g
     inkscape:groupmode="layer"
     inkscape:label="Image"
     id="g10"
     transform="translate(29.018831,-197.16551)">
    <g
       id="g3128">
      <g
         id="g852"
         transform="translate(-113.54735,81.002235)">
        <path
           style="fill:#000000;fill-opacity:1"
           d="m 86.11143,197.48464 c -1.96119,-2.21213 -2.16169,-33.87117 -0.25457,-40.19496 2.54981,-8.45483 9.25131,-15.35049 17.58998,-18.0996 6.52396,-2.15082 17.26541,-0.82049 23.28594,2.88398 2.76134,1.69907 5.3745,3.08922 5.80703,3.08922 0.43252,0 2.63275,-1.47884 4.8894,-3.2863 10.49724,-8.40777 38.07553,-25.7137 40.97669,-25.7137 0.34447,0 0.6263,2.025 0.6263,4.5 0,2.475 -0.38819,4.5 -0.86264,4.5 -2.75164,0 -25.48,16.64069 -31.85912,23.32582 l -7.22176,7.56819 1.63405,4.40889 c 1.62898,4.3952 1.24134,8.39106 -0.69776,7.19263 -0.56174,-0.34717 -1.96461,-2.48018 -3.11749,-4.74001 -2.48972,-4.88025 -11.23233,-14.37168 -15.06199,-16.35208 -3.49492,-1.80729 -15.8531,-1.83147 -20.1421,-0.0394 -8.4199,3.51806 -11.29728,12.74792 -10.33003,33.13598 0.31312,6.6 0.86368,13.6875 1.22348,15.75 0.63101,3.61721 0.55291,3.74865 -2.20523,3.71196 -1.57268,-0.0209 -3.49876,-0.75919 -4.28018,-1.6406 z"
           id="path854"
           sodipodi:nodetypes="sssssssssscssssssssss" />
      </g>
      <g
         id="g924"
         transform="translate(-113.14033,83.758852)"
         style="fill:#fe9ba1;fill-opacity:1;filter:url(#filter3016)">
        <ellipse
           style="fill:#fe9ba1;fill-opacity:1;stroke-width:16.4976;stroke-linecap:round"
           id="path910"
           cx="106.40659"
           cy="156.4543"
           rx="5.6648836"
           ry="7.356535" />
        <ellipse
           style="fill:#fe9ba1;fill-opacity:1;stroke-width:16.4976;stroke-linecap:round"
           id="path914"
           cx="121.1644"
           cy="160.52371"
           rx="4.8114491"
           ry="5.1456399" />
        <circle
           style="fill:#fe9ba1;fill-opacity:1;stroke-width:16.4976;stroke-linecap:round"
           id="path916"
           cx="99.352821"
           cy="169.19473"
           r="4.1057305" />
        <ellipse
           style="fill:#fe9ba1;fill-opacity:1;stroke-width:16.4976;stroke-linecap:round"
           id="path918"
           cx="113.26582"
           cy="174.70375"
           rx="6.8719292"
           ry="9.9225559" />
      </g>
    </g>
  </g>
</svg>
