<?xml version="1.0" encoding="UTF-8" standalone="no"?>
<svg
   xmlns:dc="http://purl.org/dc/elements/1.1/"
   xmlns:cc="http://creativecommons.org/ns#"
   xmlns:rdf="http://www.w3.org/1999/02/22-rdf-syntax-ns#"
   xmlns:svg="http://www.w3.org/2000/svg"
   xmlns="http://www.w3.org/2000/svg"
   xmlns:sodipodi="http://sodipodi.sourceforge.net/DTD/sodipodi-0.dtd"
   xmlns:inkscape="http://www.inkscape.org/namespaces/inkscape"
   version="1.1"
   id="svg2"
   width="199.06026"
   height="228.75595"
   viewBox="0 0 199.06026 228.75595"
   sodipodi:docname="paw-left-up.svg"
   inkscape:version="1.0.2 (e86c870879, 2021-01-15)">
  <metadata
     id="metadata8">
    <rdf:RDF>
      <cc:Work
         rdf:about="">
        <dc:format>image/svg+xml</dc:format>
        <dc:type
           rdf:resource="http://purl.org/dc/dcmitype/StillImage" />
        <dc:title></dc:title>
      </cc:Work>
    </rdf:RDF>
  </metadata>
  <defs
     id="defs6" />
  <sodipodi:namedview
     pagecolor="#ffffff"
     bordercolor="#666666"
     borderopacity="1"
     objecttolerance="10"
     gridtolerance="10"
     guidetolerance="10"
     inkscape:pageopacity="0"
     inkscape:pageshadow="2"
     inkscape:window-width="1366"
     inkscape:window-height="696"
     id="namedview4"
     showgrid="false"
     inkscape:snap-global="false"
     fit-margin-top="0"
     fit-margin-left="0"
     fit-margin-right="0"
     fit-margin-bottom="0"
     inkscape:zoom="0.58777778"
     inkscape:cx="346.66017"
     inkscape:cy="227.67757"
     inkscape:window-x="0"
     inkscape:window-y="0"
     inkscape:window-maximized="1"
     inkscape:current-layer="g10" />
  <g
     inkscape:groupmode="layer"
     inkscape:label="Image"
     id="g10"
     transform="translate(-4.3256438,-4.4095917)">
    <path
       style="fill:#f7d0d1"
       d="m 1096.8739,622.07257 c 0,-0.21085 0.9006,-0.61888 2.0014,-0.90674 1.1007,-0.28785 1.7492,-0.11534 1.441,0.38337 -0.5383,0.87091 -3.4424,1.31244 -3.4424,0.52337 z m -2,-2.29498 c 0,-0.55642 1.0125,-1.86892 2.25,-2.91666 l 2.25,-1.90499 -1.9893,2.5 c -1.0942,1.375 -2.1067,2.6875 -2.25,2.91667 -0.1434,0.22916 -0.2607,-0.0386 -0.2607,-0.59502 z m 14.5,-10.32165 c -1.6304,-0.70061 -1.6875,-0.87242 -0.309,-0.92971 0.93,-0.0387 1.9691,0.37971 2.309,0.92971 0.7107,1.14988 0.6759,1.14988 -2,0 z m -11.2363,-13.71758 c 1.5201,-0.22986 3.7701,-0.22371 5,0.0136 1.23,0.23736 -0.014,0.42542 -2.7637,0.41792 -2.75,-0.008 -3.7563,-0.20172 -2.2363,-0.43157 z m -4.0137,-4.97175 c 0.9625,-0.25152 2.5375,-0.25152 3.5,0 0.9625,0.25153 0.175,0.45733 -1.75,0.45733 -1.925,0 -2.7125,-0.2058 -1.75,-0.45733 z M 373.14293,555.76295 c 0.97297,-0.25354 2.32297,-0.23687 3,0.0371 0.67703,0.27393 -0.11903,0.48137 -1.76903,0.46099 -1.65,-0.0204 -2.20394,-0.2445 -1.23097,-0.49804 z m -7.07408,-6.80701 c 0.0204,-1.65 0.2445,-2.20394 0.49804,-1.23097 0.25354,0.97297 0.23687,2.32297 -0.0371,3 -0.27393,0.67703 -0.48137,-0.11903 -0.46099,-1.76903 z m 6.55505,-9.16228 c 0.6875,-0.27741 1.8125,-0.27741 2.5,0 0.6875,0.27741 0.125,0.50439 -1.25,0.50439 -1.375,0 -1.9375,-0.22698 -1.25,-0.50439 z m 9,-3 c 0.6875,-0.27741 1.8125,-0.27741 2.5,0 0.6875,0.27741 0.125,0.50439 -1.25,0.50439 -1.375,0 -1.9375,-0.22698 -1.25,-0.50439 z m -18.634,-7.96528 c -0.0638,-1.17015 0.6715,-2.74515 1.634,-3.5 1.52199,-1.19363 1.60116,-1.17701 0.60761,0.12756 -0.62832,0.825 -1.36362,2.4 -1.634,3.5 -0.46694,1.89963 -0.49743,1.89323 -0.60761,-0.12756 z m 18.634,-1.03472 c 0.6875,-0.27741 1.8125,-0.27741 2.5,0 0.6875,0.27741 0.125,0.50439 -1.25,0.50439 -1.375,0 -1.9375,-0.22698 -1.25,-0.50439 z m -14,-4 c 0.6875,-0.27741 1.8125,-0.27741 2.5,0 0.6875,0.27741 0.125,0.50439 -1.25,0.50439 -1.375,0 -1.9375,-0.22698 -1.25,-0.50439 z m 729.25,-351.72109 c 0,-0.21085 0.9006,-0.61888 2.0014,-0.90674 1.1007,-0.28785 1.7492,-0.11534 1.441,0.38337 -0.5383,0.87091 -3.4424,1.31244 -3.4424,0.52337 z m -2,-2.29498 c 0,-0.55642 1.0125,-1.86892 2.25,-2.91666 l 2.25,-1.90499 -1.9893,2.5 c -1.0942,1.375 -2.1067,2.6875 -2.25,2.91667 -0.1434,0.22916 -0.2607,-0.0386 -0.2607,-0.59502 z m 14.5,-10.32165 c -1.6304,-0.70061 -1.6875,-0.87242 -0.309,-0.92971 0.93,-0.0387 1.9691,0.37971 2.309,0.92971 0.7107,1.14988 0.6759,1.14988 -2,0 z m -11.2363,-13.71758 c 1.5201,-0.22986 3.7701,-0.22371 5,0.0136 1.23,0.23736 -0.014,0.42542 -2.7637,0.41792 -2.75,-0.008 -3.7563,-0.20172 -2.2363,-0.43157 z m -4.0137,-4.97175 c 0.9625,-0.25152 2.5375,-0.25152 3.5,0 0.9625,0.25153 0.175,0.45733 -1.75,0.45733 -1.925,0 -2.7125,-0.2058 -1.75,-0.45733 z M 373.14293,105.76295 c 0.97297,-0.25354 2.32297,-0.23687 3,0.0371 0.67703,0.27393 -0.11903,0.48137 -1.76903,0.46099 -1.65,-0.0204 -2.20394,-0.2445 -1.23097,-0.49804 z m -7.07408,-6.807011 c 0.0204,-1.65 0.2445,-2.20394 0.49804,-1.23097 0.25354,0.97297 0.23687,2.322971 -0.0371,3.000001 -0.27393,0.67703 -0.48137,-0.11903 -0.46099,-1.769031 z m 6.55505,-9.16228 c 0.6875,-0.27741 1.8125,-0.27741 2.5,0 0.6875,0.27741 0.125,0.50439 -1.25,0.50439 -1.375,0 -1.9375,-0.22698 -1.25,-0.50439 z m 9,-3 c 0.6875,-0.27741 1.8125,-0.27741 2.5,0 0.6875,0.27741 0.125,0.50439 -1.25,0.50439 -1.375,0 -1.9375,-0.22698 -1.25,-0.50439 z m -18.634,-7.96528 c -0.0638,-1.17015 0.6715,-2.74515 1.634,-3.5 1.52199,-1.19363 1.60116,-1.17701 0.60761,0.12756 -0.62832,0.825 -1.36362,2.4 -1.634,3.5 -0.46694,1.89963 -0.49743,1.89323 -0.60761,-0.12756 z m 18.634,-1.03472 c 0.6875,-0.27741 1.8125,-0.27741 2.5,0 0.6875,0.27741 0.125,0.50439 -1.25,0.50439 -1.375,0 -1.9375,-0.22698 -1.25,-0.50439 z m -14,-4 c 0.6875,-0.27741 1.8125,-0.27741 2.5,0 0.6875,0.27741 0.125,0.50439 -1.25,0.50439 -1.375,0 -1.9375,-0.22698 -1.25,-0.50439 z"
       id="path853" />
    <path
       style="fill:#d0d0d0"
       d="m 1217.1106,580.21625 c 0.6948,-1.48221 1.428,-2.21545 1.6294,-1.62941 0.2013,0.58604 -0.3672,1.79876 -1.2634,2.69493 -1.5058,1.50588 -1.5336,1.4251 -0.366,-1.06552 z m -71.4867,-425.46604 c 1.2375,-0.23836 3.2625,-0.23836 4.5,0 1.2375,0.23835 0.225,0.43337 -2.25,0.43337 -2.475,0 -3.4875,-0.19502 -2.25,-0.43337 z m -23.75,-34.67183 c 0,-0.20765 0.7875,-0.99515 1.75,-1.75 1.5861,-1.24387 1.6214,-1.2085 0.3776,0.37756 -1.3064,1.66575 -2.1276,2.19548 -2.1276,1.37244 z m -768.92105,-2.20577 c 0.048,-1.16495 0.28494,-1.4019 0.60416,-0.60417 0.28887,0.72187 0.25335,1.58437 -0.0789,1.91667 -0.33229,0.33229 -0.56864,-0.25834 -0.52522,-1.3125 z m -6.92106,-1.41667 c 0,-1.375 0.22698,-1.9375 0.50439,-1.25 0.27741,0.6875 0.27741,1.8125 0,2.5 -0.27741,0.6875 -0.50439,0.125 -0.50439,-1.25 z m 6.12812,-10.5 c 0.008,-2.75 0.20172,-3.75631 0.43157,-2.23625 0.22986,1.52006 0.22371,3.77006 -0.0136,5 -0.23736,1.22994 -0.42542,-0.0137 -0.41792,-2.76375 z m 43.58643,-24.250001 c -1.24387,-1.58606 -1.2085,-1.62143 0.37756,-0.37756 1.66575,1.30637 2.19548,2.12756 1.37244,2.12756 -0.20765,0 -0.99515,-0.7875 -1.75,-1.75 z"
       id="path851" />
    <g
       id="g921"
       transform="matrix(3.760839,0,0,3.760839,-1299.6791,-223.10688)">
      <g
         id="g915">
        <g
           id="g910">
          <g
             id="g906">
            <path
               style="fill:#f99ca1"
               d="m 369.09641,103.89924 c -2.70698,-1.89605 -3.00692,-7.316501 -0.6075,-10.978481 1.24288,-1.89687 2.48198,-2.46482 5.37756,-2.46482 4.37139,0 5.88054,1.44319 6.68352,6.3914 1.16911,7.204401 -5.4327,11.269091 -11.45358,7.051901 z M 359.0739,94.255939 c -1.62976,-1.62976 -1.50759,-3.34956 0.37143,-5.22857 2.13355,-2.13355 4.14223,-1.97497 5.42857,0.42857 2.16057,4.03707 -2.61266,7.98734 -5.8,4.8 z m 19.33679,-9.68407 c -0.9245,-2.91285 1.47486,-6.11593 4.58131,-6.11593 3.22703,0 5.14511,2.11618 4.70866,5.19496 -0.2729,1.92512 -1.01334,2.35504 -4.49243,2.60842 -3.43167,0.24992 -4.27701,-0.0474 -4.79754,-1.68745 z m -12.78679,-2.19603 c -2.00885,-1.17005 -2.31835,-4.95155 -0.55,-6.7199 3.52028,-3.52028 10.14241,0.42317 7.86296,4.68235 -1.59002,2.97099 -4.37711,3.74753 -7.31296,2.03755 z"
               id="path849"
               sodipodi:nodetypes="ssssssssssssssssss" />
          </g>
        </g>
      </g>
    </g>
    <path
       style="fill:#010101;stroke-width:3.76084"
       d="M 13.319634,231.01523 C 5.261104,229.46305 4.845674,227.65007 4.604644,192.97878 3.857184,85.45921 3.957514,83.997786 13.519644,63.111364 23.349984,41.639042 46.626494,19.704098 69.901384,9.9792076 85.437794,3.4876986 113.57789,2.5273306 132.15327,7.8546726 151.71351,13.46449 185.0893,44.271554 195.25274,66.097771 209.96436,97.691264 205.57448,97.647826 175.03571,65.897695 151.0894,41.001504 142.66358,34.714547 127.80999,30.660137 105.34628,24.528465 76.521664,30.376946 51.736534,46.09511 c -26.34107,16.705007 -28.80066,24.900816 -28.50084,94.96979 0.14291,33.35057 1.33536,67.83001 2.6503,76.62097 1.31494,8.79097 0.92938,15.75311 -0.85683,15.47142 -1.78621,-0.28169 -7.05549,-1.24559 -11.70953,-2.14199 z"
       id="path841"
       sodipodi:nodetypes="ssssssssssssss" />
  </g>
</svg>
