<?xml version="1.0" encoding="UTF-8" standalone="no"?>
<svg
   xmlns:dc="http://purl.org/dc/elements/1.1/"
   xmlns:cc="http://creativecommons.org/ns#"
   xmlns:rdf="http://www.w3.org/1999/02/22-rdf-syntax-ns#"
   xmlns:svg="http://www.w3.org/2000/svg"
   xmlns="http://www.w3.org/2000/svg"
   xmlns:sodipodi="http://sodipodi.sourceforge.net/DTD/sodipodi-0.dtd"
   xmlns:inkscape="http://www.inkscape.org/namespaces/inkscape"
   version="1.1"
   id="svg2"
   width="199.06026"
   height="228.75595"
   viewBox="0 0 199.06026 228.75595"
   sodipodi:docname="paw-left-down-withe.svg"
   inkscape:version="1.0.2 (e86c870879, 2021-01-15)">
  <metadata
     id="metadata8">
    <rdf:RDF>
      <cc:Work
         rdf:about="">
        <dc:format>image/svg+xml</dc:format>
        <dc:type
           rdf:resource="http://purl.org/dc/dcmitype/StillImage" />
        <dc:title />
      </cc:Work>
    </rdf:RDF>
  </metadata>
  <defs
     id="defs6" />
  <sodipodi:namedview
     pagecolor="#ffffff"
     bordercolor="#666666"
     borderopacity="1"
     objecttolerance="10"
     gridtolerance="10"
     guidetolerance="10"
     inkscape:pageopacity="0"
     inkscape:pageshadow="2"
     inkscape:window-width="1366"
     inkscape:window-height="742"
     id="namedview4"
     showgrid="false"
     inkscape:snap-global="false"
     fit-margin-top="0"
     fit-margin-left="0"
     fit-margin-right="0"
     fit-margin-bottom="0"
     inkscape:zoom="2.3511111"
     inkscape:cx="147.39808"
     inkscape:cy="62.861135"
     inkscape:window-x="0"
     inkscape:window-y="0"
     inkscape:window-maximized="1"
     inkscape:current-layer="g10"
     inkscape:document-rotation="0" />
  <g
     inkscape:groupmode="layer"
     inkscape:label="Image"
     id="g10"
     transform="translate(-4.3256438,-4.4095917)">
    <path
       style="fill:#000000;stroke:#000000;stroke-width:1px;stroke-linecap:butt;stroke-linejoin:miter;stroke-opacity:1;fill-opacity:1"
       d="M 80.689347,12.461464 192.87429,117.44066 C 158.27271,152.98418 120.43292,182.60343 58.299628,167.77782 43.098913,139.34422 20.678114,118.34561 80.689347,12.461464 Z"
       id="path836"
       sodipodi:nodetypes="cccc" />
    <path
       style="fill:#f7d0d1"
       d="m 1096.8739,622.07257 c 0,-0.21085 0.9006,-0.61888 2.0014,-0.90674 1.1007,-0.28785 1.7492,-0.11534 1.441,0.38337 -0.5383,0.87091 -3.4424,1.31244 -3.4424,0.52337 z m -2,-2.29498 c 0,-0.55642 1.0125,-1.86892 2.25,-2.91666 l 2.25,-1.90499 -1.9893,2.5 c -1.0942,1.375 -2.1067,2.6875 -2.25,2.91667 -0.1434,0.22916 -0.2607,-0.0386 -0.2607,-0.59502 z m 14.5,-10.32165 c -1.6304,-0.70061 -1.6875,-0.87242 -0.309,-0.92971 0.93,-0.0387 1.9691,0.37971 2.309,0.92971 0.7107,1.14988 0.6759,1.14988 -2,0 z m -11.2363,-13.71758 c 1.5201,-0.22986 3.7701,-0.22371 5,0.0136 1.23,0.23736 -0.014,0.42542 -2.7637,0.41792 -2.75,-0.008 -3.7563,-0.20172 -2.2363,-0.43157 z m -4.0137,-4.97175 c 0.9625,-0.25152 2.5375,-0.25152 3.5,0 0.9625,0.25153 0.175,0.45733 -1.75,0.45733 -1.925,0 -2.7125,-0.2058 -1.75,-0.45733 z M 373.14293,555.76295 c 0.97297,-0.25354 2.32297,-0.23687 3,0.0371 0.67703,0.27393 -0.11903,0.48137 -1.76903,0.46099 -1.65,-0.0204 -2.20394,-0.2445 -1.23097,-0.49804 z m -7.07408,-6.80701 c 0.0204,-1.65 0.2445,-2.20394 0.49804,-1.23097 0.25354,0.97297 0.23687,2.32297 -0.0371,3 -0.27393,0.67703 -0.48137,-0.11903 -0.46099,-1.76903 z m 6.55505,-9.16228 c 0.6875,-0.27741 1.8125,-0.27741 2.5,0 0.6875,0.27741 0.125,0.50439 -1.25,0.50439 -1.375,0 -1.9375,-0.22698 -1.25,-0.50439 z m 9,-3 c 0.6875,-0.27741 1.8125,-0.27741 2.5,0 0.6875,0.27741 0.125,0.50439 -1.25,0.50439 -1.375,0 -1.9375,-0.22698 -1.25,-0.50439 z m -18.634,-7.96528 c -0.0638,-1.17015 0.6715,-2.74515 1.634,-3.5 1.52199,-1.19363 1.60116,-1.17701 0.60761,0.12756 -0.62832,0.825 -1.36362,2.4 -1.634,3.5 -0.46694,1.89963 -0.49743,1.89323 -0.60761,-0.12756 z m 18.634,-1.03472 c 0.6875,-0.27741 1.8125,-0.27741 2.5,0 0.6875,0.27741 0.125,0.50439 -1.25,0.50439 -1.375,0 -1.9375,-0.22698 -1.25,-0.50439 z m -14,-4 c 0.6875,-0.27741 1.8125,-0.27741 2.5,0 0.6875,0.27741 0.125,0.50439 -1.25,0.50439 -1.375,0 -1.9375,-0.22698 -1.25,-0.50439 z m 729.25,-351.72109 c 0,-0.21085 0.9006,-0.61888 2.0014,-0.90674 1.1007,-0.28785 1.7492,-0.11534 1.441,0.38337 -0.5383,0.87091 -3.4424,1.31244 -3.4424,0.52337 z m -2,-2.29498 c 0,-0.55642 1.0125,-1.86892 2.25,-2.91666 l 2.25,-1.90499 -1.9893,2.5 c -1.0942,1.375 -2.1067,2.6875 -2.25,2.91667 -0.1434,0.22916 -0.2607,-0.0386 -0.2607,-0.59502 z m 14.5,-10.32165 c -1.6304,-0.70061 -1.6875,-0.87242 -0.309,-0.92971 0.93,-0.0387 1.9691,0.37971 2.309,0.92971 0.7107,1.14988 0.6759,1.14988 -2,0 z m -11.2363,-13.71758 c 1.5201,-0.22986 3.7701,-0.22371 5,0.0136 1.23,0.23736 -0.014,0.42542 -2.7637,0.41792 -2.75,-0.008 -3.7563,-0.20172 -2.2363,-0.43157 z m -4.0137,-4.97175 c 0.9625,-0.25152 2.5375,-0.25152 3.5,0 0.9625,0.25153 0.175,0.45733 -1.75,0.45733 -1.925,0 -2.7125,-0.2058 -1.75,-0.45733 z M 373.14293,105.76295 c 0.97297,-0.25354 2.32297,-0.23687 3,0.0371 0.67703,0.27393 -0.11903,0.48137 -1.76903,0.46099 -1.65,-0.0204 -2.20394,-0.2445 -1.23097,-0.49804 z m -7.07408,-6.807011 c 0.0204,-1.65 0.2445,-2.20394 0.49804,-1.23097 0.25354,0.97297 0.23687,2.322971 -0.0371,3.000001 -0.27393,0.67703 -0.48137,-0.11903 -0.46099,-1.769031 z m 6.55505,-9.16228 c 0.6875,-0.27741 1.8125,-0.27741 2.5,0 0.6875,0.27741 0.125,0.50439 -1.25,0.50439 -1.375,0 -1.9375,-0.22698 -1.25,-0.50439 z m 9,-3 c 0.6875,-0.27741 1.8125,-0.27741 2.5,0 0.6875,0.27741 0.125,0.50439 -1.25,0.50439 -1.375,0 -1.9375,-0.22698 -1.25,-0.50439 z m -18.634,-7.96528 c -0.0638,-1.17015 0.6715,-2.74515 1.634,-3.5 1.52199,-1.19363 1.60116,-1.17701 0.60761,0.12756 -0.62832,0.825 -1.36362,2.4 -1.634,3.5 -0.46694,1.89963 -0.49743,1.89323 -0.60761,-0.12756 z m 18.634,-1.03472 c 0.6875,-0.27741 1.8125,-0.27741 2.5,0 0.6875,0.27741 0.125,0.50439 -1.25,0.50439 -1.375,0 -1.9375,-0.22698 -1.25,-0.50439 z m -14,-4 c 0.6875,-0.27741 1.8125,-0.27741 2.5,0 0.6875,0.27741 0.125,0.50439 -1.25,0.50439 -1.375,0 -1.9375,-0.22698 -1.25,-0.50439 z"
       id="path853" />
    <path
       style="fill:#d0d0d0"
       d="m 1217.1106,580.21625 c 0.6948,-1.48221 1.428,-2.21545 1.6294,-1.62941 0.2013,0.58604 -0.3672,1.79876 -1.2634,2.69493 -1.5058,1.50588 -1.5336,1.4251 -0.366,-1.06552 z m -71.4867,-425.46604 c 1.2375,-0.23836 3.2625,-0.23836 4.5,0 1.2375,0.23835 0.225,0.43337 -2.25,0.43337 -2.475,0 -3.4875,-0.19502 -2.25,-0.43337 z m -23.75,-34.67183 c 0,-0.20765 0.7875,-0.99515 1.75,-1.75 1.5861,-1.24387 1.6214,-1.2085 0.3776,0.37756 -1.3064,1.66575 -2.1276,2.19548 -2.1276,1.37244 z m -768.92105,-2.20577 c 0.048,-1.16495 0.28494,-1.4019 0.60416,-0.60417 0.28887,0.72187 0.25335,1.58437 -0.0789,1.91667 -0.33229,0.33229 -0.56864,-0.25834 -0.52522,-1.3125 z m -6.92106,-1.41667 c 0,-1.375 0.22698,-1.9375 0.50439,-1.25 0.27741,0.6875 0.27741,1.8125 0,2.5 -0.27741,0.6875 -0.50439,0.125 -0.50439,-1.25 z m 6.12812,-10.5 c 0.008,-2.75 0.20172,-3.75631 0.43157,-2.23625 0.22986,1.52006 0.22371,3.77006 -0.0136,5 -0.23736,1.22994 -0.42542,-0.0137 -0.41792,-2.76375 z m 43.58643,-24.250001 c -1.24387,-1.58606 -1.2085,-1.62143 0.37756,-0.37756 1.66575,1.30637 2.19548,2.12756 1.37244,2.12756 -0.20765,0 -0.99515,-0.7875 -1.75,-1.75 z"
       id="path851" />
    <path
       style="fill:#ce4f4f;stroke-width:2.1518"
       d="m 63.197519,231.86923 c -1.254198,-3.69246 2.822982,-32.85161 4.590376,-32.82946 2.285218,0.029 2.856962,7.79977 1.650622,22.43609 -0.968007,11.74489 -4.042563,16.86511 -6.240998,10.39337 z M 11.790404,204.69097 c -1.8241864,-5.37015 18.464721,-33.63293 21.607234,-30.09927 3.315122,3.72782 1.372088,8.98916 -7.809463,21.14658 -9.851722,13.04488 -11.946146,14.40377 -13.797771,8.95269 z m -6.731702,-77.0231 c 0.4514602,-4.30804 2.4436279,-5.36797 11.429919,-6.08111 9.750422,-0.77381 10.82627,-0.32064 10.336204,4.35373 -0.45146,4.30805 -2.443628,5.36798 -11.429919,6.08112 -9.7504224,0.7738 -10.8262695,0.32064 -10.336204,-4.35374 z"
       id="path845"
       sodipodi:nodetypes="sssssssssssss" />
    <path
       style="fill:#ffffff;stroke-width:2.1518"
       d="m 66.973018,177.35757 c -20.447317,-7.84618 -28.734403,-25.91492 -28.699147,-62.57529 0.01595,-11.03152 1.22979,-20.92044 3.793541,-30.76864 5.334568,-20.491364 33.9447,-76.9159377 39.000256,-76.9159377 5.162758,0 2.174507,9.1063827 -11.246463,34.2724067 -18.972494,35.575653 -24.228096,53.802437 -23.284816,80.753641 0.503466,14.38705 1.477854,19.95463 4.556238,26.03375 6.753717,13.3369 15.1496,18.45248 30.237781,18.42369 29.651842,-0.0566 55.381562,-12.2968 89.051062,-42.36362 16.34455,-14.59568 18.7333,-15.94589 25.12537,-14.20187 8.19695,2.23645 8.74253,4.81406 2.67669,12.64431 -14.7638,19.05826 -48.25846,41.91994 -74.57858,50.90346 -17.63263,6.01828 -45.900261,7.9121 -56.631932,3.7941 z"
       id="path841-3"
       sodipodi:nodetypes="scsssssssssss" />
  </g>
</svg>
